<?xml version="1.0" encoding="UTF-8"?>
<svg width="300" height="300" version="1.1" viewBox="0 0 300.00001 300.00001" xmlns="http://www.w3.org/2000/svg" xmlns:cc="http://creativecommons.org/ns#" xmlns:dc="http://purl.org/dc/elements/1.1/" xmlns:rdf="http://www.w3.org/1999/02/22-rdf-syntax-ns#" xmlns:xlink="http://www.w3.org/1999/xlink">
<defs>
<radialGradient id="c" cx="-255.69" cy="2026.6" r="235.41" gradientTransform="matrix(.62034 0 0 .62034 179.67 -293.59)" gradientUnits="userSpaceOnUse">
<stop stop-color="#ff00bf" offset="0"/>
<stop stop-color="#f600ff" stop-opacity="0" offset="1"/>
</radialGradient>
<radialGradient id="a" cx="197.49" cy="2046" r="235.41" gradientTransform="matrix(.62034 0 0 .62034 187.12 -288.62)" gradientUnits="userSpaceOnUse">
<stop stop-color="#0fffff" offset="0"/>
<stop stop-color="#0feeff" stop-opacity="0" offset="1"/>
</radialGradient>
<radialGradient id="b" cx="-32.622" cy="1670.4" r="235.41" gradientTransform="matrix(.62034 0 0 .40241 184.64 64.289)" gradientUnits="userSpaceOnUse">
<stop stop-color="#00eca4" offset="0"/>
<stop stop-color="#0fff6d" stop-opacity="0" offset="1"/>
</radialGradient>
</defs>
<metadata>
<rdf:RDF>
<cc:Work rdf:about="">
<dc:format>image/svg+xml</dc:format>
<dc:type rdf:resource="http://purl.org/dc/dcmitype/StillImage"/>
<dc:title/>
</cc:Work>
</rdf:RDF>
</metadata>
<g transform="translate(0 -752.36)">
<g transform="translate(-9.4196 25.714)">
<path d="m164.4 734.26-150.36 40.288v193.37l140.44 51.115 150.36-40.287v-193.37l-140.44-51.117z" fill="#5991ff" fill-rule="evenodd"/>
<path d="m164.4 734.26-146.03 39.129v57.823h286.47v-45.835l-140.44-51.117z" fill="url(#b)" opacity=".941"/>
<path d="m163.6 834.57v182.02l141.24-37.843v-144.18h-141.24z" fill="url(#a)" opacity=".931"/>
<path d="m14.039 817.58v150.34l140.44 51.115 12.614-3.3804v-198.08h-153.06z" fill="url(#c)" opacity=".669"/>
<path d="m70.675 888.21l8.181 2.9776c-6.1358-17.504-10.226-28.404-12.272-32.7-6.363-12.26-11.476-21.756-15.339-28.489-5.2268-8.65-7.8402-16.881-7.8402-24.695 0-12.785 3.9769-17.73 11.931-14.835 4.3177 1.5715 7.4992 5.2154 9.5446 10.932 2.2724 5.799 4.0905 14.806 5.454 27.022 1.3635 12.571 2.8407 22.342 4.4314 29.314 1.818 7.4094 4.9995 17.801 9.5446 31.175 0 0 2.0452-5.1155 2.0452-5.1155 4.7722-12.113 8.181-25.966 10.226-41.558 3.1815-23.347 8.5219-33.655 16.021-30.926 3.636 1.3234 6.5903 3.9968 8.8628 8.0201 2.4997 4.4612 3.7496 9.3553 3.7496 14.682 0 6.7477-3.636 13.948-10.908 21.6-10.908 11.656-19.316 24.754-25.225 39.295l4.4313 1.6128c8.6356 3.1431 18.975 4.0654 31.02 2.767 8.6355-0.76352 14.544-0.56625 17.726 0.59174 3.1815 1.1579 5.9085 3.9262 8.181 8.3046 2.4998 4.8164 3.7497 9.7106 3.7497 14.683 0 5.6822-1.2499 9.844-3.7497 12.486-2.4997 2.9967-5.5676 3.8334-9.2036 2.5099-3.1816-1.1579-8.4083-4.836-15.68-11.034-11.363-9.8178-20.793-16.092-28.293-18.821l-9.2037-3.3499s2.0453 5.5388 2.0453 5.5388c4.3178 11.871 11.476 26.551 21.475 44.04 9.3172 16.531 13.976 28.348 13.976 35.451 0 5.6822-1.2499 9.8441-3.7496 12.486-2.4998 2.6416-5.6813 3.2592-9.5446 1.8532-4.3178-1.5716-7.4993-4.8604-9.5445-9.8665-1.818-4.5682-3.2951-12.209-4.4314-22.921-2.2724-20.005-7.1583-41.493-14.658-64.465l-2.0453 2.9845c-1.3635 1.9898-3.2951 8.2119-5.7949 18.666-2.4997 10.455-4.3177 20.447-5.454 29.977-1.3635 11.223-3.1815 18.552-5.454 21.987-2.0453 3.8724-5.2268 5.0228-9.5446 3.4513-3.636-1.3234-6.7039-4.2157-9.2037-8.6769-2.2724-4.3785-3.4087-9.2313-3.4087-14.558 0-8.8784 4.8858-17.754 14.658-26.627 9.5445-8.2457 16.703-19.136 21.475-32.67 0 0-2.0452-0.74435-2.0452-0.74435-14.09-5.1281-26.929-6.4276-38.519-3.8983-5.2268 1.2939-8.8627 1.5687-10.908 0.82419-3.636-1.3234-6.8175-4.6123-9.5445-9.8665-2.727-5.2542-4.0906-10.722-4.0906-16.405 0-4.9719 1.2499-8.9562 3.7497-11.953 2.727-2.5589 5.6812-3.2593 8.8627-2.1014 4.0906 1.4888 9.4309 5.5634 16.021 12.224 9.3172 9.0734 18.748 15.347 28.293 18.821" fill="#fff"/>
<path d="m243.58 814.64 13.597-3.6434c14.818-3.9704 24.754-4.3935 29.81-1.2692 5.0555 3.1242 9.065 12.274 12.029 27.448l6.0143-1.6115 0.0602-50.23-150.45 41.09 0.0378 49.429 6.0143-1.6115c3.1379-17.004 7.2345-28.325 12.29-33.964 4.8812-5.7868 14.731-10.665 29.548-14.636l14.12-3.7836v149.56c0 10.321-1.569 17.557-4.7069 21.709-3.1378 3.9566-10.024 7.6516-20.658 11.085v5.55l76.617-20.529v-5.55c-10.808 2.3119-17.52 2.1629-20.135-0.44708-2.7892-2.563-4.1838-10.076-4.1838-22.539v-146.05" fill="#fff"/>
</g>
</g>
</svg>
