<svg class="railroad-diagram" height="1216" viewBox="0 0 601.0 1216" width="601.0" xmlns="http://www.w3.org/2000/svg">
<g transform="translate(.5 .5)">
<style>
    svg.railroad-diagram {
        background-color: transparent;
    }
    svg.railroad-diagram path {
        stroke-width: 1;
        stroke: yellow;
        fill: transparent;
    }
    svg.railroad-diagram text {
        fill: white;
        font: 14px monospace;
        text-anchor: middle;
        white-space: pre;
    }
    svg.railroad-diagram text.diagram-text {
        font-size: 12px;
    }
    svg.railroad-diagram text.diagram-arrow {
        font-size: 16px;
    }
    svg.railroad-diagram text.label {
        text-anchor: start;
    }
    svg.railroad-diagram text.comment {
        font: italic 12px monospace;
    }
    svg.railroad-diagram g.non-terminal text {
        /*font-style: italic;*/
    }
    svg.railroad-diagram rect {
        stroke-width: 1;
        stroke: yellow;
        fill: transparent;
    }
    svg.railroad-diagram rect.group-box {
        stroke: rgb(251, 68, 98);
        stroke-dasharray: 10 5;
        fill: none;
    }
    svg.railroad-diagram path.diagram-text {
        stroke-width: 3;
        stroke: black;
        fill: white;
        cursor: help;
    }
    svg.railroad-diagram g.diagram-text:hover path.diagram-text {
        fill: #eee;
    }
</style><g>
<path d="M20 252v20m10 -20v20m-10 -10h20"></path></g><g>
<path d="M40 262h0.0"></path><path d="M561.0 262h0.0"></path><path d="M40.0 262h20"></path><g>
<path d="M60.0 262h0.0"></path><path d="M541.0 262h0.0"></path><rect class="group-box" height="1121" rx="10" ry="10" width="481.0" x="60.0" y="36"></rect><g>
<path d="M60.0 262h0.0"></path><path d="M541.0 262h0.0"></path><path d="M60.0 262a10 10 0 0 0 10 -10v-68a10 10 0 0 1 10 -10"></path><g>
<path d="M80.0 174h22.25"></path><path d="M498.75 174h22.25"></path><rect class="group-box" height="72" rx="10" ry="10" width="396.5" x="102.25" y="138"></rect><g>
<path d="M102.25 174h10.0"></path><path d="M488.75 174h10.0"></path><g class="terminal ">
<path d="M112.25 174h0.0"></path><path d="M140.75 174h0.0"></path><rect height="22" rx="10" ry="10" width="28.5" x="112.25" y="163"></rect><text x="126.5" y="178">"</text></g><path d="M140.75 174h10"></path><g>
<path d="M150.75 174h0.0"></path><path d="M450.25 174h0.0"></path><path d="M150.75 174a10 10 0 0 0 10 -10v-8a10 10 0 0 1 10 -10"></path><g>
<path d="M170.75 146h259.5"></path></g><path d="M430.25 146a10 10 0 0 1 10 10v8a10 10 0 0 0 10 10"></path><path d="M150.75 174h20"></path><g>
<path d="M170.75 174h0.0"></path><path d="M430.25 174h0.0"></path><path d="M170.75 174h10"></path><g>
<path d="M180.75 174h0.0"></path><path d="M420.25 174h0.0"></path><path d="M180.75 174a10 10 0 0 0 10 -10v0a10 10 0 0 1 10 -10h124.0"></path><path d="M267.75 194h132.5a10 10 0 0 0 10 -10v0a10 10 0 0 1 10 -10"></path><path d="M180.75 174h10"></path><g class="terminal ">
<path d="M190.75 174h10.0"></path><path d="M237.75 174h10.0"></path><rect height="22" rx="10" ry="10" width="37.0" x="200.75" y="163"></rect><text x="219.25" y="178">\\</text></g><path d="M247.75 174a10 10 0 0 1 10 10v0a10 10 0 0 0 10 10"></path><path d="M247.75 154a10 10 0 0 1 10 10v0a10 10 0 0 0 10 10"></path><g class="terminal ">
<path d="M267.75 174h10.0"></path><path d="M314.75 174h10.0"></path><rect height="22" rx="10" ry="10" width="37.0" x="277.75" y="163"></rect><text x="296.25" y="178">\"</text></g><path d="M324.75 174a10 10 0 0 1 10 10v0a10 10 0 0 0 10 10"></path><path d="M324.75 154a10 10 0 0 1 10 10v0a10 10 0 0 0 10 10"></path><g class="terminal ">
<path d="M344.75 174h10.0"></path><path d="M400.25 174h10.0"></path><rect height="22" rx="10" ry="10" width="45.5" x="354.75" y="163"></rect><text x="377.5" y="178">any</text></g><path d="M410.25 174h10"></path></g><path d="M420.25 174h10"></path><path d="M180.75 174a10 10 0 0 0 -10 10v8a10 10 0 0 0 10 10"></path><g>
<path d="M180.75 202h239.5"></path></g><path d="M420.25 202a10 10 0 0 0 10 -10v-8a10 10 0 0 0 -10 -10"></path></g><path d="M430.25 174h20"></path></g><path d="M450.25 174h10"></path><g class="terminal ">
<path d="M460.25 174h0.0"></path><path d="M488.75 174h0.0"></path><rect height="22" rx="10" ry="10" width="28.5" x="460.25" y="163"></rect><text x="474.5" y="178">"</text></g></g><g class="non-terminal ">
<path d="M102.25 130h0.0"></path><path d="M154.25 130h0.0"></path><text class="comment" x="128.25" y="135">string</text></g></g><path d="M521.0 174a10 10 0 0 1 10 10v68a10 10 0 0 0 10 10"></path><path d="M60.0 262a10 10 0 0 0 10 -10v-155a10 10 0 0 1 10 -10"></path><g>
<path d="M80.0 87h0.25"></path><path d="M520.75 87h0.25"></path><path d="M80.25 87a10 10 0 0 0 10 -10v-23a10 10 0 0 1 10 -10h189.5"></path><path d="M195.75 114h305.0a10 10 0 0 0 10 -10v-7a10 10 0 0 1 10 -10"></path><path d="M80.25 87h10"></path><g>
<path d="M90.25 87h10.0"></path><path d="M165.75 87h10.0"></path><rect class="group-box" height="38" rx="10" ry="10" width="65.5" x="100.25" y="68"></rect><g class="terminal ">
<path d="M100.25 87h10.0"></path><path d="M155.75 87h10.0"></path><rect height="22" rx="10" ry="10" width="45.5" x="110.25" y="76"></rect><text x="133.0" y="91">" "</text></g><g class="non-terminal ">
<path d="M100.25 60h0.0"></path><path d="M131.25 60h0.0"></path><text class="comment" x="115.75" y="65">nop</text></g></g><path d="M175.75 87a10 10 0 0 1 10 10v7a10 10 0 0 0 10 10"></path><path d="M175.75 44a10 10 0 0 1 10 10v23a10 10 0 0 0 10 10"></path><g>
<path d="M195.75 87h10.0"></path><path d="M279.75 87h10.0"></path><rect class="group-box" height="38" rx="10" ry="10" width="74.0" x="205.75" y="68"></rect><g class="terminal ">
<path d="M205.75 87h10.0"></path><path d="M269.75 87h10.0"></path><rect height="22" rx="10" ry="10" width="54.0" x="215.75" y="76"></rect><text x="242.75" y="91">0-9+</text></g><g class="non-terminal ">
<path d="M205.75 60h0.0"></path><path d="M257.75 60h0.0"></path><text class="comment" x="231.75" y="65">number</text></g></g><path d="M289.75 87a10 10 0 0 1 10 10v7a10 10 0 0 0 10 10"></path><path d="M289.75 44a10 10 0 0 1 10 10v23a10 10 0 0 0 10 10"></path><g>
<path d="M309.75 87h10.0"></path><path d="M500.75 87h10.0"></path><g>
<path d="M319.75 87h0.0"></path><path d="M402.25 87h0.0"></path><rect class="group-box" height="38" rx="10" ry="10" width="82.5" x="319.75" y="68"></rect><g>
<path d="M319.75 87h10.0"></path><path d="M392.25 87h10.0"></path><g class="terminal ">
<path d="M329.75 87h0.0"></path><path d="M392.25 87h0.0"></path><rect height="22" rx="10" ry="10" width="62.5" x="329.75" y="76"></rect><text x="361.0" y="91">A-Z+&#95;</text></g></g><g class="non-terminal ">
<path d="M319.75 60h0.0"></path><path d="M343.75 60h0.0"></path><text class="comment" x="331.75" y="65">id</text></g></g><path d="M402.25 87h10"></path><g>
<path d="M412.25 87h0.0"></path><path d="M500.75 87h0.0"></path><path d="M412.25 87a10 10 0 0 0 10 -10v-23a10 10 0 0 1 10 -10"></path><g>
<path d="M432.25 44h48.5"></path></g><path d="M480.75 44a10 10 0 0 1 10 10v23a10 10 0 0 0 10 10"></path><path d="M412.25 87h20"></path><g>
<path d="M432.25 87h0.0"></path><path d="M480.75 87h0.0"></path><rect class="group-box" height="38" rx="10" ry="10" width="48.5" x="432.25" y="68"></rect><g class="terminal ">
<path d="M432.25 87h10.0"></path><path d="M470.75 87h10.0"></path><rect height="22" rx="10" ry="10" width="28.5" x="442.25" y="76"></rect><text x="456.5" y="91">^</text></g><g class="non-terminal ">
<path d="M432.25 60h0.0"></path><path d="M463.25 60h0.0"></path><text class="comment" x="447.75" y="65">var</text></g></g><path d="M480.75 87h20"></path></g></g><path d="M510.75 87h10"></path></g><path d="M521.0 87a10 10 0 0 1 10 10v155a10 10 0 0 0 10 10"></path><path d="M60.0 262h20"></path><g>
<path d="M80.0 262h142.25"></path><path d="M378.75 262h142.25"></path><rect class="group-box" height="56" rx="10" ry="10" width="156.5" x="222.25" y="234"></rect><g>
<path d="M222.25 262h0.0"></path><path d="M378.75 262h0.0"></path><path d="M222.25 262a10 10 0 0 0 10 -10v0a10 10 0 0 1 10 -10"></path><g>
<path d="M242.25 242h116.5"></path></g><path d="M358.75 242a10 10 0 0 1 10 10v0a10 10 0 0 0 10 10"></path><path d="M222.25 262h20"></path><g>
<path d="M242.25 262h0.0"></path><path d="M358.75 262h0.0"></path><path d="M242.25 262h10"></path><g class="non-terminal ">
<path d="M252.25 262h0.0"></path><path d="M348.75 262h0.0"></path><rect height="22" width="96.5" x="252.25" y="251"></rect><text x="300.5" y="266">statement</text></g><path d="M348.75 262h10"></path><path d="M252.25 262a10 10 0 0 0 -10 10v0a10 10 0 0 0 10 10"></path><g>
<path d="M252.25 282h96.5"></path></g><path d="M348.75 282a10 10 0 0 0 10 -10v0a10 10 0 0 0 -10 -10"></path></g><path d="M358.75 262h20"></path></g><g class="non-terminal ">
<path d="M222.25 226h0.0"></path><path d="M267.25 226h0.0"></path><text class="comment" x="244.75" y="231">block</text></g></g><path d="M521.0 262h20"></path><path d="M60.0 262a10 10 0 0 1 10 10v60a10 10 0 0 0 10 10"></path><g>
<path d="M80.0 342h55.25"></path><path d="M465.75 342h55.25"></path><rect class="group-box" height="47" rx="10" ry="10" width="330.5" x="135.25" y="314"></rect><g>
<path d="M135.25 342h10.0"></path><path d="M455.75 342h10.0"></path><g class="terminal ">
<path d="M145.25 342h0.0"></path><path d="M173.75 342h0.0"></path><rect height="22" rx="10" ry="10" width="28.5" x="145.25" y="331"></rect><text x="159.5" y="346">(</text></g><path d="M173.75 342h10"></path><path d="M183.75 342h10"></path><g class="non-terminal ">
<path d="M193.75 342h0.0"></path><path d="M256.25 342h0.0"></path><rect height="22" width="62.5" x="193.75" y="331"></rect><text x="225.0" y="346">block</text></g><path d="M256.25 342h10"></path><g>
<path d="M266.25 342h0.0"></path><path d="M417.25 342h0.0"></path><path d="M266.25 342a10 10 0 0 0 10 -10v0a10 10 0 0 1 10 -10"></path><g>
<path d="M286.25 322h111.0"></path></g><path d="M397.25 322a10 10 0 0 1 10 10v0a10 10 0 0 0 10 10"></path><path d="M266.25 342h20"></path><g>
<path d="M286.25 342h0.0"></path><path d="M397.25 342h0.0"></path><g class="terminal ">
<path d="M286.25 342h0.0"></path><path d="M314.75 342h0.0"></path><rect height="22" rx="10" ry="10" width="28.5" x="286.25" y="331"></rect><text x="300.5" y="346">:</text></g><path d="M314.75 342h10"></path><path d="M324.75 342h10"></path><g class="non-terminal ">
<path d="M334.75 342h0.0"></path><path d="M397.25 342h0.0"></path><rect height="22" width="62.5" x="334.75" y="331"></rect><text x="366.0" y="346">block</text></g></g><path d="M397.25 342h20"></path></g><path d="M417.25 342h10"></path><g class="terminal ">
<path d="M427.25 342h0.0"></path><path d="M455.75 342h0.0"></path><rect height="22" rx="10" ry="10" width="28.5" x="427.25" y="331"></rect><text x="441.5" y="346">)</text></g></g><g class="non-terminal ">
<path d="M135.25 306h0.0"></path><path d="M159.25 306h0.0"></path><text class="comment" x="147.25" y="311">if</text></g></g><path d="M521.0 342a10 10 0 0 0 10 -10v-60a10 10 0 0 1 10 -10"></path><path d="M60.0 262a10 10 0 0 1 10 10v122a10 10 0 0 0 10 10"></path><g>
<path d="M80.0 404h130.75"></path><path d="M390.25 404h130.75"></path><rect class="group-box" height="38" rx="10" ry="10" width="179.5" x="210.75" y="385"></rect><g>
<path d="M210.75 404h10.0"></path><path d="M380.25 404h10.0"></path><g class="terminal ">
<path d="M220.75 404h0.0"></path><path d="M249.25 404h0.0"></path><rect height="22" rx="10" ry="10" width="28.5" x="220.75" y="393"></rect><text x="235.0" y="408">&#91;</text></g><path d="M249.25 404h10"></path><path d="M259.25 404h10"></path><g class="non-terminal ">
<path d="M269.25 404h0.0"></path><path d="M331.75 404h0.0"></path><rect height="22" width="62.5" x="269.25" y="393"></rect><text x="300.5" y="408">block</text></g><path d="M331.75 404h10"></path><path d="M341.75 404h10"></path><g class="terminal ">
<path d="M351.75 404h0.0"></path><path d="M380.25 404h0.0"></path><rect height="22" rx="10" ry="10" width="28.5" x="351.75" y="393"></rect><text x="366.0" y="408">&#93;</text></g></g><g class="non-terminal ">
<path d="M210.75 377h0.0"></path><path d="M255.75 377h0.0"></path><text class="comment" x="233.25" y="382">while</text></g></g><path d="M521.0 404a10 10 0 0 0 10 -10v-122a10 10 0 0 1 10 -10"></path><path d="M60.0 262a10 10 0 0 1 10 10v184a10 10 0 0 0 10 10"></path><g>
<path d="M80.0 466h102.25"></path><path d="M418.75 466h102.25"></path><rect class="group-box" height="38" rx="10" ry="10" width="236.5" x="182.25" y="447"></rect><g>
<path d="M182.25 466h10.0"></path><path d="M408.75 466h10.0"></path><g class="non-terminal ">
<path d="M192.25 466h0.0"></path><path d="M229.25 466h0.0"></path><rect height="22" width="37.0" x="192.25" y="455"></rect><text x="210.75" y="470">id</text></g><path d="M229.25 466h10"></path><path d="M239.25 466h10"></path><g class="terminal ">
<path d="M249.25 466h0.0"></path><path d="M277.75 466h0.0"></path><rect height="22" rx="10" ry="10" width="28.5" x="249.25" y="455"></rect><text x="263.5" y="470">{</text></g><path d="M277.75 466h10"></path><path d="M287.75 466h10"></path><g class="non-terminal ">
<path d="M297.75 466h0.0"></path><path d="M360.25 466h0.0"></path><rect height="22" width="62.5" x="297.75" y="455"></rect><text x="329.0" y="470">block</text></g><path d="M360.25 466h10"></path><path d="M370.25 466h10"></path><g class="terminal ">
<path d="M380.25 466h0.0"></path><path d="M408.75 466h0.0"></path><rect height="22" rx="10" ry="10" width="28.5" x="380.25" y="455"></rect><text x="394.5" y="470">}</text></g></g><g class="non-terminal ">
<path d="M182.25 439h0.0"></path><path d="M248.25 439h0.0"></path><text class="comment" x="215.25" y="444">function</text></g></g><path d="M521.0 466a10 10 0 0 0 10 -10v-184a10 10 0 0 1 10 -10"></path><path d="M60.0 262a10 10 0 0 1 10 10v255a10 10 0 0 0 10 10"></path><g>
<path d="M80.0 537h86.0"></path><path d="M435.0 537h86.0"></path><path d="M166.0 537a10 10 0 0 0 10 -10v-23a10 10 0 0 1 10 -10h62"></path><path d="M268.0 573h147.0a10 10 0 0 0 10 -10v-16a10 10 0 0 1 10 -10"></path><path d="M166.0 537h10"></path><g>
<path d="M176.0 537h10.0"></path><path d="M238.0 537h10.0"></path><rect class="group-box" height="38" rx="10" ry="10" width="52" x="186.0" y="518"></rect><g class="terminal ">
<path d="M186.0 537h11.75"></path><path d="M226.25 537h11.75"></path><rect height="22" rx="10" ry="10" width="28.5" x="197.75" y="526"></rect><text x="212.0" y="541">r</text></g><g class="non-terminal ">
<path d="M186.0 510h0.0"></path><path d="M238.0 510h0.0"></path><text class="comment" x="212.0" y="515">return</text></g></g><path d="M248.0 537a10 10 0 0 1 10 10v16a10 10 0 0 0 10 10"></path><path d="M248.0 494a10 10 0 0 1 10 10v23a10 10 0 0 0 10 10"></path><g>
<path d="M268.0 537h10.0"></path><path d="M415.0 537h10.0"></path><rect class="group-box" height="56" rx="10" ry="10" width="137.0" x="278.0" y="509"></rect><g>
<path d="M278.0 537h0.0"></path><path d="M415.0 537h0.0"></path><path d="M278.0 537a10 10 0 0 0 10 -10v0a10 10 0 0 1 10 -10h38.5"></path><path d="M356.5 557h38.5a10 10 0 0 0 10 -10v0a10 10 0 0 1 10 -10"></path><path d="M278.0 537h10"></path><g class="terminal ">
<path d="M288.0 537h10.0"></path><path d="M326.5 537h10.0"></path><rect height="22" rx="10" ry="10" width="28.5" x="298.0" y="526"></rect><text x="312.25" y="541">c</text></g><path d="M336.5 537a10 10 0 0 1 10 10v0a10 10 0 0 0 10 10"></path><path d="M336.5 517a10 10 0 0 1 10 10v0a10 10 0 0 0 10 10"></path><g class="terminal ">
<path d="M356.5 537h10.0"></path><path d="M395.0 537h10.0"></path><rect height="22" rx="10" ry="10" width="28.5" x="366.5" y="526"></rect><text x="380.75" y="541">x</text></g><path d="M405.0 537h10"></path></g><g class="non-terminal ">
<path d="M278.0 501h0.0"></path><path d="M337.0 501h0.0"></path><text class="comment" x="307.5" y="506">loop&#95;op</text></g></g><path d="M425.0 537h10"></path></g><path d="M521.0 537a10 10 0 0 0 10 -10v-255a10 10 0 0 1 10 -10"></path><path d="M60.0 262a10 10 0 0 1 10 10v343a10 10 0 0 0 10 10"></path><g>
<path d="M80.0 625h83.5"></path><path d="M437.5 625h83.5"></path><rect class="group-box" height="56" rx="10" ry="10" width="274.0" x="163.5" y="597"></rect><g>
<path d="M163.5 625h0.0"></path><path d="M437.5 625h0.0"></path><path d="M163.5 625a10 10 0 0 0 10 -10v0a10 10 0 0 1 10 -10h175.5"></path><path d="M242.0 645h175.5a10 10 0 0 0 10 -10v0a10 10 0 0 1 10 -10"></path><path d="M163.5 625h10"></path><g class="terminal ">
<path d="M173.5 625h10.0"></path><path d="M212.0 625h10.0"></path><rect height="22" rx="10" ry="10" width="28.5" x="183.5" y="614"></rect><text x="197.75" y="629">b</text></g><path d="M222.0 625a10 10 0 0 1 10 10v0a10 10 0 0 0 10 10"></path><path d="M222.0 605a10 10 0 0 1 10 10v0a10 10 0 0 0 10 10"></path><g class="terminal ">
<path d="M242.0 625h10.0"></path><path d="M280.5 625h10.0"></path><rect height="22" rx="10" ry="10" width="28.5" x="252.0" y="614"></rect><text x="266.25" y="629">s</text></g><path d="M290.5 625a10 10 0 0 1 10 10v0a10 10 0 0 0 10 10"></path><path d="M290.5 605a10 10 0 0 1 10 10v0a10 10 0 0 0 10 10"></path><g class="terminal ">
<path d="M310.5 625h10.0"></path><path d="M349.0 625h10.0"></path><rect height="22" rx="10" ry="10" width="28.5" x="320.5" y="614"></rect><text x="334.75" y="629">i</text></g><path d="M359.0 625a10 10 0 0 1 10 10v0a10 10 0 0 0 10 10"></path><path d="M359.0 605a10 10 0 0 1 10 10v0a10 10 0 0 0 10 10"></path><g class="terminal ">
<path d="M379.0 625h10.0"></path><path d="M417.5 625h10.0"></path><rect height="22" rx="10" ry="10" width="28.5" x="389.0" y="614"></rect><text x="403.25" y="629">f</text></g><path d="M427.5 625h10"></path></g><g class="non-terminal ">
<path d="M163.5 589h0.0"></path><path d="M201.5 589h0.0"></path><text class="comment" x="182.5" y="594">type</text></g></g><path d="M521.0 625a10 10 0 0 0 10 -10v-343a10 10 0 0 1 10 -10"></path><path d="M60.0 262a10 10 0 0 1 10 10v423a10 10 0 0 0 10 10"></path><g>
<path d="M80.0 705h63.5"></path><path d="M457.5 705h63.5"></path><rect class="group-box" height="104" rx="10" ry="10" width="314.0" x="143.5" y="677"></rect><g>
<path d="M143.5 705h0.0"></path><path d="M457.5 705h0.0"></path><path d="M143.5 705h20"></path><g>
<path d="M163.5 705h0.0"></path><path d="M437.5 705h0.0"></path><path d="M163.5 705a10 10 0 0 0 10 -10v0a10 10 0 0 1 10 -10h175.5"></path><path d="M242.0 725h175.5a10 10 0 0 0 10 -10v0a10 10 0 0 1 10 -10"></path><path d="M163.5 705h10"></path><g class="terminal ">
<path d="M173.5 705h10.0"></path><path d="M212.0 705h10.0"></path><rect height="22" rx="10" ry="10" width="28.5" x="183.5" y="694"></rect><text x="197.75" y="709">&#60;</text></g><path d="M222.0 705a10 10 0 0 1 10 10v0a10 10 0 0 0 10 10"></path><path d="M222.0 685a10 10 0 0 1 10 10v0a10 10 0 0 0 10 10"></path><g class="terminal ">
<path d="M242.0 705h10.0"></path><path d="M280.5 705h10.0"></path><rect height="22" rx="10" ry="10" width="28.5" x="252.0" y="694"></rect><text x="266.25" y="709">></text></g><path d="M290.5 705a10 10 0 0 1 10 10v0a10 10 0 0 0 10 10"></path><path d="M290.5 685a10 10 0 0 1 10 10v0a10 10 0 0 0 10 10"></path><g class="terminal ">
<path d="M310.5 705h10.0"></path><path d="M349.0 705h10.0"></path><rect height="22" rx="10" ry="10" width="28.5" x="320.5" y="694"></rect><text x="334.75" y="709">!</text></g><path d="M359.0 705a10 10 0 0 1 10 10v0a10 10 0 0 0 10 10"></path><path d="M359.0 685a10 10 0 0 1 10 10v0a10 10 0 0 0 10 10"></path><g class="terminal ">
<path d="M379.0 705h10.0"></path><path d="M417.5 705h10.0"></path><rect height="22" rx="10" ry="10" width="28.5" x="389.0" y="694"></rect><text x="403.25" y="709">;</text></g><path d="M427.5 705h10"></path></g><path d="M437.5 705h20"></path><path d="M143.5 705a10 10 0 0 1 10 10v28a10 10 0 0 0 10 10"></path><g>
<path d="M163.5 753h0.0"></path><path d="M437.5 753h0.0"></path><path d="M163.5 753a10 10 0 0 0 10 -10v0a10 10 0 0 1 10 -10h175.5"></path><path d="M242.0 773h175.5a10 10 0 0 0 10 -10v0a10 10 0 0 1 10 -10"></path><path d="M163.5 753h10"></path><g class="terminal ">
<path d="M173.5 753h10.0"></path><path d="M212.0 753h10.0"></path><rect height="22" rx="10" ry="10" width="28.5" x="183.5" y="742"></rect><text x="197.75" y="757">@</text></g><path d="M222.0 753a10 10 0 0 1 10 10v0a10 10 0 0 0 10 10"></path><path d="M222.0 733a10 10 0 0 1 10 10v0a10 10 0 0 0 10 10"></path><g class="terminal ">
<path d="M242.0 753h10.0"></path><path d="M280.5 753h10.0"></path><rect height="22" rx="10" ry="10" width="28.5" x="252.0" y="742"></rect><text x="266.25" y="757">z</text></g><path d="M290.5 753a10 10 0 0 1 10 10v0a10 10 0 0 0 10 10"></path><path d="M290.5 733a10 10 0 0 1 10 10v0a10 10 0 0 0 10 10"></path><g class="terminal ">
<path d="M310.5 753h10.0"></path><path d="M349.0 753h10.0"></path><rect height="22" rx="10" ry="10" width="28.5" x="320.5" y="742"></rect><text x="334.75" y="757">#</text></g><path d="M359.0 753a10 10 0 0 1 10 10v0a10 10 0 0 0 10 10"></path><path d="M359.0 733a10 10 0 0 1 10 10v0a10 10 0 0 0 10 10"></path><g class="terminal ">
<path d="M379.0 753h10.0"></path><path d="M417.5 753h10.0"></path><rect height="22" rx="10" ry="10" width="28.5" x="389.0" y="742"></rect><text x="403.25" y="757">m</text></g><path d="M427.5 753h10"></path></g><path d="M437.5 753a10 10 0 0 0 10 -10v-28a10 10 0 0 1 10 -10"></path></g><g class="non-terminal ">
<path d="M143.5 669h0.0"></path><path d="M174.5 669h0.0"></path><text class="comment" x="159.0" y="674">mem</text></g></g><path d="M521.0 705a10 10 0 0 0 10 -10v-423a10 10 0 0 1 10 -10"></path><path d="M60.0 262a10 10 0 0 1 10 10v551a10 10 0 0 0 10 10"></path><g>
<path d="M80.0 833h0.0"></path><path d="M521.0 833h0.0"></path><rect class="group-box" height="104" rx="10" ry="10" width="441.0" x="80.0" y="805"></rect><g>
<path d="M80.0 833h10.0"></path><path d="M511.0 833h10.0"></path><g class="terminal ">
<path d="M90.0 833h0.0"></path><path d="M118.5 833h0.0"></path><rect height="22" rx="10" ry="10" width="28.5" x="90.0" y="822"></rect><text x="104.25" y="837">?</text></g><path d="M118.5 833h10"></path><g>
<path d="M128.5 833h0.0"></path><path d="M511.0 833h0.0"></path><path d="M128.5 833h20"></path><g>
<path d="M148.5 833h0.0"></path><path d="M491.0 833h0.0"></path><path d="M148.5 833a10 10 0 0 0 10 -10v0a10 10 0 0 1 10 -10h244.0"></path><path d="M227.0 853h244.0a10 10 0 0 0 10 -10v0a10 10 0 0 1 10 -10"></path><path d="M148.5 833h10"></path><g class="terminal ">
<path d="M158.5 833h10.0"></path><path d="M197.0 833h10.0"></path><rect height="22" rx="10" ry="10" width="28.5" x="168.5" y="822"></rect><text x="182.75" y="837">></text></g><path d="M207.0 833a10 10 0 0 1 10 10v0a10 10 0 0 0 10 10"></path><path d="M207.0 813a10 10 0 0 1 10 10v0a10 10 0 0 0 10 10"></path><g class="terminal ">
<path d="M227.0 833h10.0"></path><path d="M265.5 833h10.0"></path><rect height="22" rx="10" ry="10" width="28.5" x="237.0" y="822"></rect><text x="251.25" y="837">&#60;</text></g><path d="M275.5 833a10 10 0 0 1 10 10v0a10 10 0 0 0 10 10"></path><path d="M275.5 813a10 10 0 0 1 10 10v0a10 10 0 0 0 10 10"></path><g class="terminal ">
<path d="M295.5 833h10.0"></path><path d="M334.0 833h10.0"></path><rect height="22" rx="10" ry="10" width="28.5" x="305.5" y="822"></rect><text x="319.75" y="837">=</text></g><path d="M344.0 833a10 10 0 0 1 10 10v0a10 10 0 0 0 10 10"></path><path d="M344.0 813a10 10 0 0 1 10 10v0a10 10 0 0 0 10 10"></path><g class="terminal ">
<path d="M364.0 833h10.0"></path><path d="M402.5 833h10.0"></path><rect height="22" rx="10" ry="10" width="28.5" x="374.0" y="822"></rect><text x="388.25" y="837">!</text></g><path d="M412.5 833a10 10 0 0 1 10 10v0a10 10 0 0 0 10 10"></path><path d="M412.5 813a10 10 0 0 1 10 10v0a10 10 0 0 0 10 10"></path><g class="terminal ">
<path d="M432.5 833h10.0"></path><path d="M471.0 833h10.0"></path><rect height="22" rx="10" ry="10" width="28.5" x="442.5" y="822"></rect><text x="456.75" y="837">h</text></g><path d="M481.0 833h10"></path></g><path d="M491.0 833h20"></path><path d="M128.5 833a10 10 0 0 1 10 10v28a10 10 0 0 0 10 10"></path><g>
<path d="M148.5 881h34.25"></path><path d="M456.75 881h34.25"></path><path d="M182.75 881a10 10 0 0 0 10 -10v0a10 10 0 0 1 10 -10h175.5"></path><path d="M261.25 901h175.5a10 10 0 0 0 10 -10v0a10 10 0 0 1 10 -10"></path><path d="M182.75 881h10"></path><g class="terminal ">
<path d="M192.75 881h10.0"></path><path d="M231.25 881h10.0"></path><rect height="22" rx="10" ry="10" width="28.5" x="202.75" y="870"></rect><text x="217.0" y="885">l</text></g><path d="M241.25 881a10 10 0 0 1 10 10v0a10 10 0 0 0 10 10"></path><path d="M241.25 861a10 10 0 0 1 10 10v0a10 10 0 0 0 10 10"></path><g class="terminal ">
<path d="M261.25 881h10.0"></path><path d="M299.75 881h10.0"></path><rect height="22" rx="10" ry="10" width="28.5" x="271.25" y="870"></rect><text x="285.5" y="885">g</text></g><path d="M309.75 881a10 10 0 0 1 10 10v0a10 10 0 0 0 10 10"></path><path d="M309.75 861a10 10 0 0 1 10 10v0a10 10 0 0 0 10 10"></path><g class="terminal ">
<path d="M329.75 881h10.0"></path><path d="M368.25 881h10.0"></path><rect height="22" rx="10" ry="10" width="28.5" x="339.75" y="870"></rect><text x="354.0" y="885">?</text></g><path d="M378.25 881a10 10 0 0 1 10 10v0a10 10 0 0 0 10 10"></path><path d="M378.25 861a10 10 0 0 1 10 10v0a10 10 0 0 0 10 10"></path><g class="terminal ">
<path d="M398.25 881h10.0"></path><path d="M436.75 881h10.0"></path><rect height="22" rx="10" ry="10" width="28.5" x="408.25" y="870"></rect><text x="422.5" y="885">z</text></g><path d="M446.75 881h10"></path></g><path d="M491.0 881a10 10 0 0 0 10 -10v-28a10 10 0 0 1 10 -10"></path></g></g><g class="non-terminal ">
<path d="M80.0 797h0.0"></path><path d="M111.0 797h0.0"></path><text class="comment" x="95.5" y="802">cmp</text></g></g><path d="M521.0 833a10 10 0 0 0 10 -10v-551a10 10 0 0 1 10 -10"></path><path d="M60.0 262a10 10 0 0 1 10 10v679a10 10 0 0 0 10 10"></path><g>
<path d="M80.0 961h49.25"></path><path d="M471.75 961h49.25"></path><rect class="group-box" height="56" rx="10" ry="10" width="342.5" x="129.25" y="933"></rect><g>
<path d="M129.25 961h0.0"></path><path d="M471.75 961h0.0"></path><path d="M129.25 961a10 10 0 0 0 10 -10v0a10 10 0 0 1 10 -10h244.0"></path><path d="M207.75 981h244.0a10 10 0 0 0 10 -10v0a10 10 0 0 1 10 -10"></path><path d="M129.25 961h10"></path><g class="terminal ">
<path d="M139.25 961h10.0"></path><path d="M177.75 961h10.0"></path><rect height="22" rx="10" ry="10" width="28.5" x="149.25" y="950"></rect><text x="163.5" y="965">+</text></g><path d="M187.75 961a10 10 0 0 1 10 10v0a10 10 0 0 0 10 10"></path><path d="M187.75 941a10 10 0 0 1 10 10v0a10 10 0 0 0 10 10"></path><g class="terminal ">
<path d="M207.75 961h10.0"></path><path d="M246.25 961h10.0"></path><rect height="22" rx="10" ry="10" width="28.5" x="217.75" y="950"></rect><text x="232.0" y="965">-</text></g><path d="M256.25 961a10 10 0 0 1 10 10v0a10 10 0 0 0 10 10"></path><path d="M256.25 941a10 10 0 0 1 10 10v0a10 10 0 0 0 10 10"></path><g class="terminal ">
<path d="M276.25 961h10.0"></path><path d="M314.75 961h10.0"></path><rect height="22" rx="10" ry="10" width="28.5" x="286.25" y="950"></rect><text x="300.5" y="965">&#42;</text></g><path d="M324.75 961a10 10 0 0 1 10 10v0a10 10 0 0 0 10 10"></path><path d="M324.75 941a10 10 0 0 1 10 10v0a10 10 0 0 0 10 10"></path><g class="terminal ">
<path d="M344.75 961h10.0"></path><path d="M383.25 961h10.0"></path><rect height="22" rx="10" ry="10" width="28.5" x="354.75" y="950"></rect><text x="369.0" y="965">/</text></g><path d="M393.25 961a10 10 0 0 1 10 10v0a10 10 0 0 0 10 10"></path><path d="M393.25 941a10 10 0 0 1 10 10v0a10 10 0 0 0 10 10"></path><g class="terminal ">
<path d="M413.25 961h10.0"></path><path d="M451.75 961h10.0"></path><rect height="22" rx="10" ry="10" width="28.5" x="423.25" y="950"></rect><text x="437.5" y="965">%</text></g><path d="M461.75 961h10"></path></g><g class="non-terminal ">
<path d="M129.25 925h0.0"></path><path d="M167.25 925h0.0"></path><text class="comment" x="148.25" y="930">math</text></g></g><path d="M521.0 961a10 10 0 0 0 10 -10v-679a10 10 0 0 1 10 -10"></path><path d="M60.0 262a10 10 0 0 1 10 10v759a10 10 0 0 0 10 10"></path><g>
<path d="M80.0 1041h83.5"></path><path d="M437.5 1041h83.5"></path><rect class="group-box" height="56" rx="10" ry="10" width="274.0" x="163.5" y="1013"></rect><g>
<path d="M163.5 1041h0.0"></path><path d="M437.5 1041h0.0"></path><path d="M163.5 1041a10 10 0 0 0 10 -10v0a10 10 0 0 1 10 -10h175.5"></path><path d="M242.0 1061h175.5a10 10 0 0 0 10 -10v0a10 10 0 0 1 10 -10"></path><path d="M163.5 1041h10"></path><g class="terminal ">
<path d="M173.5 1041h10.0"></path><path d="M212.0 1041h10.0"></path><rect height="22" rx="10" ry="10" width="28.5" x="183.5" y="1030"></rect><text x="197.75" y="1045">$</text></g><path d="M222.0 1041a10 10 0 0 1 10 10v0a10 10 0 0 0 10 10"></path><path d="M222.0 1021a10 10 0 0 1 10 10v0a10 10 0 0 0 10 10"></path><g class="terminal ">
<path d="M242.0 1041h10.0"></path><path d="M280.5 1041h10.0"></path><rect height="22" rx="10" ry="10" width="28.5" x="252.0" y="1030"></rect><text x="266.25" y="1045">p</text></g><path d="M290.5 1041a10 10 0 0 1 10 10v0a10 10 0 0 0 10 10"></path><path d="M290.5 1021a10 10 0 0 1 10 10v0a10 10 0 0 0 10 10"></path><g class="terminal ">
<path d="M310.5 1041h10.0"></path><path d="M349.0 1041h10.0"></path><rect height="22" rx="10" ry="10" width="28.5" x="320.5" y="1030"></rect><text x="334.75" y="1045">o</text></g><path d="M359.0 1041a10 10 0 0 1 10 10v0a10 10 0 0 0 10 10"></path><path d="M359.0 1021a10 10 0 0 1 10 10v0a10 10 0 0 0 10 10"></path><g class="terminal ">
<path d="M379.0 1041h10.0"></path><path d="M417.5 1041h10.0"></path><rect height="22" rx="10" ry="10" width="28.5" x="389.0" y="1030"></rect><text x="403.25" y="1045">h</text></g><path d="M427.5 1041h10"></path></g><g class="non-terminal ">
<path d="M163.5 1005h0.0"></path><path d="M208.5 1005h0.0"></path><text class="comment" x="186.0" y="1010">stack</text></g></g><path d="M521.0 1041a10 10 0 0 0 10 -10v-759a10 10 0 0 1 10 -10"></path><path d="M60.0 262a10 10 0 0 1 10 10v839a10 10 0 0 0 10 10"></path><g>
<path d="M80.0 1121h15.0"></path><path d="M506.0 1121h15.0"></path><rect class="group-box" height="56" rx="10" ry="10" width="411.0" x="95.0" y="1093"></rect><g>
<path d="M95.0 1121h0.0"></path><path d="M506.0 1121h0.0"></path><path d="M95.0 1121a10 10 0 0 0 10 -10v0a10 10 0 0 1 10 -10h312.5"></path><path d="M173.5 1141h312.5a10 10 0 0 0 10 -10v0a10 10 0 0 1 10 -10"></path><path d="M95.0 1121h10"></path><g class="terminal ">
<path d="M105.0 1121h10.0"></path><path d="M143.5 1121h10.0"></path><rect height="22" rx="10" ry="10" width="28.5" x="115.0" y="1110"></rect><text x="129.25" y="1125">&#38;</text></g><path d="M153.5 1121a10 10 0 0 1 10 10v0a10 10 0 0 0 10 10"></path><path d="M153.5 1101a10 10 0 0 1 10 10v0a10 10 0 0 0 10 10"></path><g class="terminal ">
<path d="M173.5 1121h10.0"></path><path d="M212.0 1121h10.0"></path><rect height="22" rx="10" ry="10" width="28.5" x="183.5" y="1110"></rect><text x="197.75" y="1125">|</text></g><path d="M222.0 1121a10 10 0 0 1 10 10v0a10 10 0 0 0 10 10"></path><path d="M222.0 1101a10 10 0 0 1 10 10v0a10 10 0 0 0 10 10"></path><g class="terminal ">
<path d="M242.0 1121h10.0"></path><path d="M280.5 1121h10.0"></path><rect height="22" rx="10" ry="10" width="28.5" x="252.0" y="1110"></rect><text x="266.25" y="1125">^</text></g><path d="M290.5 1121a10 10 0 0 1 10 10v0a10 10 0 0 0 10 10"></path><path d="M290.5 1101a10 10 0 0 1 10 10v0a10 10 0 0 0 10 10"></path><g class="terminal ">
<path d="M310.5 1121h10.0"></path><path d="M349.0 1121h10.0"></path><rect height="22" rx="10" ry="10" width="28.5" x="320.5" y="1110"></rect><text x="334.75" y="1125">&#60;</text></g><path d="M359.0 1121a10 10 0 0 1 10 10v0a10 10 0 0 0 10 10"></path><path d="M359.0 1101a10 10 0 0 1 10 10v0a10 10 0 0 0 10 10"></path><g class="terminal ">
<path d="M379.0 1121h10.0"></path><path d="M417.5 1121h10.0"></path><rect height="22" rx="10" ry="10" width="28.5" x="389.0" y="1110"></rect><text x="403.25" y="1125">></text></g><path d="M427.5 1121a10 10 0 0 1 10 10v0a10 10 0 0 0 10 10"></path><path d="M427.5 1101a10 10 0 0 1 10 10v0a10 10 0 0 0 10 10"></path><g class="terminal ">
<path d="M447.5 1121h10.0"></path><path d="M486.0 1121h10.0"></path><rect height="22" rx="10" ry="10" width="28.5" x="457.5" y="1110"></rect><text x="471.75" y="1125">~</text></g><path d="M496.0 1121h10"></path></g><g class="non-terminal ">
<path d="M95.0 1085h0.0"></path><path d="M154.0 1085h0.0"></path><text class="comment" x="124.5" y="1090">bitwise</text></g></g><path d="M521.0 1121a10 10 0 0 0 10 -10v-839a10 10 0 0 1 10 -10"></path></g><g class="non-terminal ">
<path d="M60.0 28h0.0"></path><path d="M133.0 28h0.0"></path><text class="comment" x="96.5" y="33">statement</text></g></g><path d="M541.0 262h20"></path><path d="M40.0 262a10 10 0 0 1 10 10v883a10 10 0 0 0 10 10"></path><g>
<path d="M60.0 1165h189.25"></path><path d="M351.75 1165h189.25"></path><path d="M249.25 1165h20"></path><g>
<path d="M269.25 1165h62.5"></path></g><path d="M331.75 1165h20"></path><path d="M249.25 1165a10 10 0 0 1 10 10v0a10 10 0 0 0 10 10"></path><g class="non-terminal ">
<path d="M269.25 1185h0.0"></path><path d="M331.75 1185h0.0"></path><rect height="22" width="62.5" x="269.25" y="1174"></rect><text x="300.5" y="1189">block</text></g><path d="M331.75 1185a10 10 0 0 0 10 -10v0a10 10 0 0 1 10 -10"></path></g><path d="M541.0 1165a10 10 0 0 0 10 -10v-883a10 10 0 0 1 10 -10"></path></g><path d="M 561.0 262 h 20 m -10 -10 v 20 m 10 -20 v 20"></path></g></svg>
